<svg width="170" height="314" viewBox="0 0 170 314" fill="none" xmlns="http://www.w3.org/2000/svg">
<mask id="mask0_13_375" style="mask-type:luminance" maskUnits="userSpaceOnUse" x="0" y="0" width="322" height="314">
<path d="M211.378 0L321.836 191.32L110.459 313.359L7.12604e-06 122.039L211.378 0Z" fill="white"/>
</mask>
<g mask="url(#mask0_13_375)">
<path fill-rule="evenodd" clip-rule="evenodd" d="M90.0977 120.262C98.3979 134.638 113.713 142.457 129.284 141.943C131.739 142.13 130.579 141.819 133.264 142.602C164.75 155.324 171.624 190.41 135.561 208.36C132.564 209.859 128.983 209.017 125.633 209.07C118.413 209.185 111.115 211.084 104.408 214.956C83.4902 227.033 76.2648 253.695 88.2812 274.508C100.298 295.321 127 302.394 147.918 290.318C168.843 278.236 176.061 251.579 164.044 230.766C162.194 227.561 161.51 223.813 161.312 220.117C159.542 186.95 190.671 168.273 219.549 191.898C221.441 193.446 223.181 195.214 224.404 197.332C236.42 218.145 263.123 225.218 284.04 213.142C304.966 201.06 312.183 174.403 300.167 153.59C288.15 132.777 261.456 125.699 240.531 137.78C233.829 141.65 228.547 147.014 224.831 153.198C223.936 154.69 224.331 154.28 223.046 155.45C185.527 189.734 150.797 150.383 164.653 121.919C173.258 108.615 174.295 91.1294 165.861 76.52C153.844 55.7069 127.15 48.6289 106.224 60.7103C85.3067 72.7871 78.0813 99.4487 90.0977 120.262Z" fill="#B149CC" fill-opacity="0.07"/>
</g>
</svg>
