<svg width="186" height="191" viewBox="0 0 186 191" fill="none" xmlns="http://www.w3.org/2000/svg">
<mask id="mask0_13_369" style="mask-type:luminance" maskUnits="userSpaceOnUse" x="-136" y="-123" width="322" height="314">
<path d="M75.3777 -123L185.836 68.32L-25.5414 190.359L-136 -0.961036L75.3777 -123Z" fill="white"/>
</mask>
<g mask="url(#mask0_13_369)">
<path fill-rule="evenodd" clip-rule="evenodd" d="M-45.9023 -2.73819C-37.6021 11.6381 -22.2874 19.4574 -6.71622 18.9426C-4.26079 19.1299 -5.42146 18.8188 -2.73562 19.6017C28.7499 32.3244 35.6242 67.4103 -0.439025 85.3598C-3.43578 86.8585 -7.01655 86.0171 -10.3667 86.0705C-17.587 86.1854 -24.885 88.0841 -31.5922 91.9565C-52.5098 104.033 -59.7352 130.695 -47.7188 151.508C-35.7023 172.321 -9 179.394 11.9176 167.318C32.8432 155.236 40.0606 128.579 28.0442 107.766C26.1935 104.561 25.5097 100.813 25.3124 97.1167C23.5421 63.9497 54.6713 45.2734 83.5489 68.898C85.4413 70.4462 87.1814 72.2144 88.4039 74.3318C100.42 95.145 127.123 102.218 148.04 90.1415C168.966 78.0601 176.183 51.4032 164.167 30.5901C152.15 9.77694 125.456 2.69896 104.531 14.7804C97.8285 18.6498 92.5466 24.0137 88.8312 30.1981C87.9355 31.6903 88.3308 31.2799 87.0458 32.4504C49.5269 66.7338 14.7968 27.3834 28.6529 -1.08132C37.258 -14.3854 38.2954 -31.8706 29.8607 -46.4799C17.8442 -67.2931 -8.85007 -74.3711 -29.7757 -62.2896C-50.6933 -50.2129 -57.9187 -23.5513 -45.9023 -2.73819Z" fill="#B149CC" fill-opacity="0.09"/>
</g>
</svg>
