<svg width="171" height="188" viewBox="0 0 171 188" fill="none" xmlns="http://www.w3.org/2000/svg">
<mask id="mask0_13_320" style="mask-type:luminance" maskUnits="userSpaceOnUse" x="8" y="0" width="130" height="144">
<path d="M8 0H138V143.629H8V0Z" fill="white"/>
</mask>
<g mask="url(#mask0_13_320)">
<path fill-rule="evenodd" clip-rule="evenodd" d="M33.6036 97.1908C43.3721 97.1908 51.863 91.6868 56.1821 83.6C57 82.4037 56.5 82.9037 57.6892 81.7653C73.4368 69.4631 93.3398 76.2831 91.8764 99.9428C91.7585 101.911 90.2761 103.488 89.3176 105.211C87.2517 108.925 86.0721 113.202 86.0721 117.76C86.0721 131.973 97.5334 143.5 111.676 143.5C125.818 143.5 137.279 131.973 137.279 117.76C137.279 103.541 125.818 92.0198 111.676 92.0198C109.498 92.0198 107.386 91.2655 105.445 90.2786C88.0214 81.4222 87.6627 60.0631 108.199 52.2976C109.545 51.7887 110.958 51.4221 112.396 51.4221C126.539 51.4221 138 39.8953 138 25.682C138 11.4633 126.539 -0.0580444 112.396 -0.0580444C98.2541 -0.0580444 86.7928 11.4633 86.7928 25.682C86.7928 30.236 87.9723 34.506 90.0308 38.219C90.5277 39.1145 90.4349 38.7923 90.6533 39.7916C97.0856 68.999 66.8134 75.1201 56.3842 59.6836C52.136 51.3839 43.5305 45.7106 33.6036 45.7106C19.4613 45.7106 8 57.2319 8 71.4507C8 85.664 19.4613 97.1908 33.6036 97.1908Z" fill="#B149CC"/>
</g>
<path fill-rule="evenodd" clip-rule="evenodd" d="M73 63C79.0734 63 84 58.075 84 52.0031C84 45.925 79.0734 41 73 41C66.9266 41 62 45.925 62 52.0031C62 58.075 66.9266 63 73 63Z" fill="url(#paint0_linear_13_320)"/>
<path fill-rule="evenodd" clip-rule="evenodd" d="M73 111C80.7298 111 87 104.502 87 96.5C87 88.4983 80.7298 82 73 82C65.2702 82 59 88.4983 59 96.5C59 104.502 65.2702 111 73 111Z" fill="url(#paint1_linear_13_320)"/>
<path fill-rule="evenodd" clip-rule="evenodd" d="M113.328 86.1774C121.787 86.1774 128.648 79.3114 128.648 70.857C128.648 62.394 121.787 55.5366 113.328 55.5366C104.869 55.5366 98.0075 62.394 98.0075 70.857C98.0075 79.3114 104.869 86.1774 113.328 86.1774Z" fill="url(#paint2_linear_13_320)"/>
<path d="M14.6602 173.8H8.71875L0 148.101H5.50195L10.3359 163.394C10.6289 164.39 10.9102 165.456 11.1797 166.593C11.4492 167.718 11.625 168.538 11.707 169.054C11.8359 167.964 12.2754 166.077 13.0254 163.394L17.8945 148.101H23.3965L14.6602 173.8ZM17.8488 167.542C19.6301 168.327 21.1125 168.878 22.2961 169.195C23.4914 169.499 24.634 169.652 25.7238 169.652C26.8254 169.652 27.6926 169.423 28.3254 168.966C28.9582 168.509 29.2746 167.829 29.2746 166.927C29.2746 166.423 29.1398 165.984 28.8703 165.609C28.6008 165.222 28.1848 164.841 27.6223 164.466C27.0715 164.079 25.9816 163.505 24.3527 162.743C22.7238 161.97 21.5227 161.249 20.7492 160.581C19.0266 159.093 18.1652 157.23 18.1652 154.991C18.1652 152.753 18.9328 150.984 20.468 149.683C22.0148 148.382 24.1477 147.732 26.8664 147.732C29.1516 147.732 31.6945 148.335 34.4953 149.542L32.7375 153.779C31.4133 153.239 30.2941 152.853 29.3801 152.618C28.466 152.384 27.5344 152.267 26.5852 152.267C25.6477 152.267 24.8977 152.507 24.3352 152.987C23.7727 153.456 23.4914 154.083 23.4914 154.868C23.4914 155.349 23.5969 155.771 23.8078 156.134C24.0305 156.486 24.382 156.831 24.8625 157.171C25.3547 157.499 26.5148 158.097 28.343 158.964C30.7336 160.101 32.3742 161.255 33.2648 162.427C34.1672 163.552 34.6184 164.964 34.6184 166.663C34.6184 168.96 33.7805 170.794 32.1047 172.165C30.4289 173.489 28.1613 174.152 25.302 174.152C22.4426 174.152 19.9582 173.636 17.8488 172.605V167.542Z" fill="#B149CC"/>
<path d="M32.148 161.436C32.148 158.988 32.7 156.792 33.804 154.848C34.908 152.88 36.408 151.344 38.304 150.24C40.224 149.136 42.348 148.584 44.676 148.584C47.412 148.584 49.8 149.244 51.84 150.564C53.88 151.884 55.368 153.756 56.304 156.18H52.38C51.684 154.668 50.676 153.504 49.356 152.688C48.06 151.872 46.5 151.464 44.676 151.464C42.924 151.464 41.352 151.872 39.96 152.688C38.568 153.504 37.476 154.668 36.684 156.18C35.892 157.668 35.496 159.42 35.496 161.436C35.496 163.428 35.892 165.18 36.684 166.692C37.476 168.18 38.568 169.332 39.96 170.148C41.352 170.964 42.924 171.372 44.676 171.372C46.5 171.372 48.06 170.976 49.356 170.184C50.676 169.368 51.684 168.204 52.38 166.692H56.304C55.368 169.092 53.88 170.952 51.84 172.272C49.8 173.568 47.412 174.216 44.676 174.216C42.348 174.216 40.224 173.676 38.304 172.596C36.408 171.492 34.908 169.968 33.804 168.024C32.7 166.08 32.148 163.884 32.148 161.436ZM67.2646 174.324C65.4166 174.324 63.7366 173.904 62.2246 173.064C60.7366 172.224 59.5606 171.036 58.6966 169.5C57.8566 167.94 57.4366 166.14 57.4366 164.1C57.4366 162.084 57.8686 160.308 58.7326 158.772C59.6206 157.212 60.8206 156.024 62.3326 155.208C63.8446 154.368 65.5366 153.948 67.4086 153.948C69.2806 153.948 70.9726 154.368 72.4846 155.208C73.9966 156.024 75.1846 157.2 76.0486 158.736C76.9366 160.272 77.3806 162.06 77.3806 164.1C77.3806 166.14 76.9246 167.94 76.0126 169.5C75.1246 171.036 73.9126 172.224 72.3766 173.064C70.8406 173.904 69.1366 174.324 67.2646 174.324ZM67.2646 171.444C68.4406 171.444 69.5446 171.168 70.5766 170.616C71.6086 170.064 72.4366 169.236 73.0606 168.132C73.7086 167.028 74.0326 165.684 74.0326 164.1C74.0326 162.516 73.7206 161.172 73.0966 160.068C72.4726 158.964 71.6566 158.148 70.6486 157.62C69.6406 157.068 68.5486 156.792 67.3726 156.792C66.1726 156.792 65.0686 157.068 64.0606 157.62C63.0766 158.148 62.2846 158.964 61.6846 160.068C61.0846 161.172 60.7846 162.516 60.7846 164.1C60.7846 165.708 61.0726 167.064 61.6486 168.168C62.2486 169.272 63.0406 170.1 64.0246 170.652C65.0086 171.18 66.0886 171.444 67.2646 171.444ZM88.7799 153.912C91.1799 153.912 93.1239 154.644 94.6119 156.108C96.0999 157.548 96.8439 159.636 96.8439 162.372V174H93.6039V162.84C93.6039 160.872 93.1119 159.372 92.1279 158.34C91.1439 157.284 89.7999 156.756 88.0959 156.756C86.3679 156.756 84.9879 157.296 83.9559 158.376C82.9479 159.456 82.4439 161.028 82.4439 163.092V174H79.1679V154.272H82.4439V157.08C83.0919 156.072 83.9679 155.292 85.0719 154.74C86.1999 154.188 87.4359 153.912 88.7799 153.912ZM109.287 153.912C111.687 153.912 113.631 154.644 115.119 156.108C116.607 157.548 117.351 159.636 117.351 162.372V174H114.111V162.84C114.111 160.872 113.619 159.372 112.635 158.34C111.651 157.284 110.307 156.756 108.603 156.756C106.875 156.756 105.495 157.296 104.463 158.376C103.455 159.456 102.951 161.028 102.951 163.092V174H99.6753V154.272H102.951V157.08C103.599 156.072 104.475 155.292 105.579 154.74C106.707 154.188 107.943 153.912 109.287 153.912ZM138.183 163.38C138.183 164.004 138.147 164.664 138.075 165.36H122.307C122.427 167.304 123.087 168.828 124.287 169.932C125.511 171.012 126.987 171.552 128.715 171.552C130.131 171.552 131.307 171.228 132.243 170.58C133.203 169.908 133.875 169.02 134.259 167.916H137.787C137.259 169.812 136.203 171.36 134.619 172.56C133.035 173.736 131.067 174.324 128.715 174.324C126.843 174.324 125.163 173.904 123.675 173.064C122.211 172.224 121.059 171.036 120.219 169.5C119.379 167.94 118.959 166.14 118.959 164.1C118.959 162.06 119.367 160.272 120.183 158.736C120.999 157.2 122.139 156.024 123.603 155.208C125.091 154.368 126.795 153.948 128.715 153.948C130.587 153.948 132.243 154.356 133.683 155.172C135.123 155.988 136.227 157.116 136.995 158.556C137.787 159.972 138.183 161.58 138.183 163.38ZM134.799 162.696C134.799 161.448 134.523 160.38 133.971 159.492C133.419 158.58 132.663 157.896 131.703 157.44C130.767 156.96 129.723 156.72 128.571 156.72C126.915 156.72 125.499 157.248 124.323 158.304C123.171 159.36 122.511 160.824 122.343 162.696H134.799ZM138.763 164.1C138.763 162.06 139.171 160.284 139.987 158.772C140.803 157.236 141.931 156.048 143.371 155.208C144.835 154.368 146.503 153.948 148.375 153.948C150.799 153.948 152.791 154.536 154.351 155.712C155.935 156.888 156.979 158.52 157.483 160.608H153.955C153.619 159.408 152.959 158.46 151.975 157.764C151.015 157.068 149.815 156.72 148.375 156.72C146.503 156.72 144.991 157.368 143.839 158.664C142.687 159.936 142.111 161.748 142.111 164.1C142.111 166.476 142.687 168.312 143.839 169.608C144.991 170.904 146.503 171.552 148.375 171.552C149.815 171.552 151.015 171.216 151.975 170.544C152.935 169.872 153.595 168.912 153.955 167.664H157.483C156.955 169.68 155.899 171.3 154.315 172.524C152.731 173.724 150.751 174.324 148.375 174.324C146.503 174.324 144.835 173.904 143.371 173.064C141.931 172.224 140.803 171.036 139.987 169.5C139.171 167.964 138.763 166.164 138.763 164.1ZM163.33 156.972V168.6C163.33 169.56 163.534 170.244 163.942 170.652C164.35 171.036 165.058 171.228 166.066 171.228H168.478V174H165.526C163.702 174 162.334 173.58 161.422 172.74C160.51 171.9 160.054 170.52 160.054 168.6V156.972H157.498V154.272H160.054V149.304H163.33V154.272H168.478V156.972H163.33Z" fill="#0D62AD"/>
<defs>
<linearGradient id="paint0_linear_13_320" x1="73" y1="41" x2="73" y2="63" gradientUnits="userSpaceOnUse">
<stop stop-color="#4CA1F5"/>
<stop offset="1" stop-color="#4961CC"/>
</linearGradient>
<linearGradient id="paint1_linear_13_320" x1="73" y1="82" x2="73" y2="111" gradientUnits="userSpaceOnUse">
<stop stop-color="#4CA1F5"/>
<stop offset="1" stop-color="#4961CC"/>
</linearGradient>
<linearGradient id="paint2_linear_13_320" x1="113.328" y1="55.5366" x2="113.328" y2="86.1774" gradientUnits="userSpaceOnUse">
<stop stop-color="#4CA1F5"/>
<stop offset="1" stop-color="#4961CC"/>
</linearGradient>
</defs>
</svg>
