<svg width="47" height="40" viewBox="0 0 47 40" fill="none" xmlns="http://www.w3.org/2000/svg">
<mask id="mask0_21_124" style="mask-type:luminance" maskUnits="userSpaceOnUse" x="0" y="0" width="47" height="40">
<path d="M0 0H46.3017V40H0V0Z" fill="white"/>
</mask>
<g mask="url(#mask0_21_124)">
<path d="M34.8372 27.1484C34.8372 29.0741 33.2794 30.6337 31.3519 30.6337C29.4314 30.6337 27.8719 29.0741 27.8719 27.1484C27.8719 25.2227 29.4314 23.6648 31.3519 23.6648C33.2794 23.6648 34.8372 25.2227 34.8372 27.1484ZM18.5812 27.1484C18.5812 29.0741 17.0181 30.6337 15.0977 30.6337C13.172 30.6337 11.6124 29.0741 11.6124 27.1484C11.6124 25.2227 13.172 23.6648 15.0977 23.6648C17.0181 23.6648 18.5812 25.2227 18.5812 27.1484ZM39.4842 32.9555C39.4807 35.5202 37.4019 37.599 34.8372 37.599H11.6124C9.0477 37.599 6.96884 35.5202 6.96884 32.9555V21.3431C6.96884 18.7784 9.0477 16.6995 11.6124 16.6942H34.8372C37.4019 16.6995 39.4807 18.7784 39.4842 21.3431V32.9555ZM42.9643 23.6648H41.8025V21.3431C41.8025 17.4952 38.6851 14.3742 34.8372 14.3742H25.5466V9.08643C27.7698 7.80496 28.5319 4.96391 27.2452 2.74071C25.9637 0.517515 23.1262 -0.241155 20.903 1.04207C18.6798 2.32353 17.9176 5.16458 19.2044 7.38426C19.6092 8.09365 20.1989 8.67805 20.903 9.08643V14.3742H11.6124C7.76448 14.3742 4.64355 17.4952 4.64355 21.3431V23.6648H3.4853C1.55958 23.6648 0 25.2227 0 27.1484C0 29.0741 1.55958 30.6337 3.4853 30.6337H4.64355V32.9555C4.64355 36.8016 7.76448 39.9243 11.6124 39.9243H34.8372C38.6851 39.9243 41.8025 36.8016 41.8025 32.9555V30.6337H42.9643C44.8917 30.6337 46.4496 29.0741 46.4496 27.1484C46.4496 25.2227 44.8917 23.6648 42.9643 23.6648Z" fill="#9A49CC"/>
</g>
</svg>
