<svg width="260" height="184" viewBox="0 0 260 184" fill="none" xmlns="http://www.w3.org/2000/svg">
<path fill-rule="evenodd" clip-rule="evenodd" d="M-8.2875 249.444C16.7839 249.444 38.5759 235.317 49.6611 214.562C51.7602 211.492 50.477 212.775 53.5291 209.854C93.946 178.28 145.028 195.783 141.272 256.507C140.969 261.558 137.165 265.606 134.704 270.028C129.402 279.559 126.375 290.538 126.375 302.235C126.375 338.714 155.791 368.298 192.087 368.298C228.384 368.298 257.8 338.714 257.8 302.235C257.8 265.742 228.384 236.172 192.087 236.172C186.497 236.172 181.079 234.236 176.095 231.703C131.378 208.973 130.457 154.154 183.164 134.224C186.618 132.917 190.245 131.977 193.937 131.977C230.234 131.977 259.65 102.393 259.65 65.9138C259.65 29.4209 230.234 -0.14901 193.937 -0.14901C157.64 -0.14901 128.225 29.4209 128.225 65.9138C128.225 77.6017 131.252 88.5608 136.535 98.0904C137.81 100.389 137.572 99.5619 138.133 102.126C154.641 177.088 76.9468 192.798 50.1797 153.18C39.2766 131.879 17.1903 117.318 -8.2875 117.318C-44.5842 117.318 -74 146.888 -74 183.381C-74 219.86 -44.5842 249.444 -8.2875 249.444Z" fill="#B149CC" fill-opacity="0.05"/>
</svg>
